HIERARCHY
ROOT hip
{
  OFFSET 0 0 0
  CHANNELS 6 Xposition Yposition Zposition Zrotation Yrotation Xrotation
  JOINT abdomen
  {
    OFFSET 0 20.6881 -0.73152
    CHANNELS 3 Zrotation Xrotation Yrotation
    JOINT chest
    {
      OFFSET 0 11.7043 -0.48768
      CHANNELS 3 Zrotation Xrotation Yrotation
      JOINT neck
      {
        OFFSET 0 22.1894 -2.19456
        CHANNELS 3 Zrotation Xrotation Yrotation
        JOINT head
        {
          OFFSET -0.24384 7.07133 1.2192
          CHANNELS 3 Zrotation Xrotation Yrotation
          JOINT leftEye
          {
            OFFSET 4.14528 8.04674 8.04672
            CHANNELS 3 Zrotation Xrotation Yrotation
            End Site
            {
              OFFSET 1 0 0
            }
          }
          JOINT rightEye
          {
            OFFSET -3.6576 8.04674 8.04672
            CHANNELS 3 Zrotation Xrotation Yrotation
            End Site
            {
              OFFSET 1 0 0
            }
          }
        }
      }
      JOINT rCollar
      {
        OFFSET -2.68224 19.2634 -4.8768
        CHANNELS 3 Zrotation Xrotation Yrotation
        JOINT rShldr
        {
          OFFSET -8.77824 -1.95073 1.46304
          CHANNELS 3 Zrotation Xrotation Yrotation
          JOINT rForeArm
          {
            OFFSET -28.1742 -1.7115 0.48768
            CHANNELS 3 Zrotation Xrotation Yrotation
            JOINT rHand
            {
              OFFSET -22.5879 0.773209 7.07136
              CHANNELS 3 Zrotation Xrotation Yrotation
              JOINT rThumb1
              {
                OFFSET -1.2192 -0.487915 3.41376
                CHANNELS 3 Zrotation Xrotation Yrotation
                JOINT rThumb2
                {
                  OFFSET -3.37035 -0.52449 3.41376
                  CHANNELS 3 Zrotation Xrotation Yrotation
                  End Site
                  {
                    OFFSET -1.78271 -1.18214 1.43049
                  }
                }
              }
              JOINT rIndex1
              {
                OFFSET -7.75947 0.938293 5.60832
                CHANNELS 3 Zrotation Xrotation Yrotation
                JOINT rIndex2
                {
                  OFFSET -2.54057 -0.884171 1.56538
                  CHANNELS 3 Zrotation Xrotation Yrotation
                  End Site
                  {
                    OFFSET -1.62519 -0.234802 1.16502
                  }
                }
              }
              JOINT rMid1
              {
                OFFSET -8.24714 1.18213 3.41376
                CHANNELS 3 Zrotation Xrotation Yrotation
                JOINT rMid2
                {
                  OFFSET -3.10165 -0.590103 1.0647
                  CHANNELS 3 Zrotation Xrotation Yrotation
                  End Site
                  {
                    OFFSET -2.48547 -0.328903 0.83742
                  }
                }
              }
              JOINT rRing1
              {
                OFFSET -8.82822 0.546677 1.51678
                CHANNELS 3 Zrotation Xrotation Yrotation
                JOINT rRing2
                {
                  OFFSET -2.60934 -0.819778 -0.0198488
                  CHANNELS 3 Zrotation Xrotation Yrotation
                  End Site
                  {
                    OFFSET -2.33842 -0.294052 0.168128
                  }
                }
              }
              JOINT rPinky1
              {
                OFFSET -8.27202 -0.0477905 -0.4584
                CHANNELS 3 Zrotation Xrotation Yrotation
                JOINT rPinky2
                {
                  OFFSET -1.82734 -0.647385 -0.700984
                  CHANNELS 3 Zrotation Xrotation Yrotation
                  End Site
                  {
                    OFFSET -1.69225 -0.51767 -0.607171
                  }
                }
              }
            }
          }
        }
      }
      JOINT lCollar
      {
        OFFSET 2.68224 19.2634 -4.8768
        CHANNELS 3 Zrotation Xrotation Yrotation
        JOINT lShldr
        {
          OFFSET 8.77824 -1.95073 1.46304
          CHANNELS 3 Zrotation Xrotation Yrotation
          JOINT lForeArm
          {
            OFFSET 28.1742 -1.7115 0.48768
            CHANNELS 3 Zrotation Xrotation Yrotation
            JOINT lHand
            {
              OFFSET 22.5879 0.773209 7.07136
              CHANNELS 3 Zrotation Xrotation Yrotation
              JOINT lThumb1
              {
                OFFSET 1.2192 -0.487915 3.41376
                CHANNELS 3 Zrotation Xrotation Yrotation
                JOINT lThumb2
                {
                  OFFSET 3.37035 -0.52449 3.41376
                  CHANNELS 3 Zrotation Xrotation Yrotation
                  End Site
                  {
                    OFFSET 1.78271 -1.18214 1.43049
                  }
                }
              }
              JOINT lIndex1
              {
                OFFSET 7.75947 0.938293 5.60832
                CHANNELS 3 Zrotation Xrotation Yrotation
                JOINT lIndex2
                {
                  OFFSET 2.54057 -0.884171 1.56538
                  CHANNELS 3 Zrotation Xrotation Yrotation
                  End Site
                  {
                    OFFSET 1.62519 -0.234802 1.16502
                  }
                }
              }
              JOINT lMid1
              {
                OFFSET 8.24714 1.18213 3.41376
                CHANNELS 3 Zrotation Xrotation Yrotation
                JOINT lMid2
                {
                  OFFSET 3.10165 -0.590103 1.0647
                  CHANNELS 3 Zrotation Xrotation Yrotation
                  End Site
                  {
                    OFFSET 2.48547 -0.328903 0.83742
                  }
                }
              }
              JOINT lRing1
              {
                OFFSET 8.82822 0.546677 1.51678
                CHANNELS 3 Zrotation Xrotation Yrotation
                JOINT lRing2
                {
                  OFFSET 2.60934 -0.819778 -0.0198488
                  CHANNELS 3 Zrotation Xrotation Yrotation
                  End Site
                  {
                    OFFSET 2.33842 -0.294052 0.168128
                  }
                }
              }
              JOINT lPinky1
              {
                OFFSET 8.27202 -0.0477905 -0.4584
                CHANNELS 3 Zrotation Xrotation Yrotation
                JOINT lPinky2
                {
                  OFFSET 1.82734 -0.647385 -0.700984
                  CHANNELS 3 Zrotation Xrotation Yrotation
                  End Site
                  {
                    OFFSET 1.69225 -0.51767 -0.607171
                  }
                }
              }
            }
          }
        }
      }
    }
  }
  JOINT rButtock
  {
    OFFSET -8.77824 4.35084 1.2192
    CHANNELS 3 Zrotation Xrotation Yrotation
    JOINT rThigh
    {
      OFFSET 0 -1.70687 -2.19456
      CHANNELS 3 Zrotation Xrotation Yrotation
      JOINT rShin
      {
        OFFSET 0 -36.8199 0.73152
        CHANNELS 3 Zrotation Xrotation Yrotation
        JOINT rFoot
        {
          OFFSET 0.73152 -45.1104 -5.12064
          CHANNELS 3 Zrotation Xrotation Yrotation
          End Site
          {
            OFFSET -1.1221 -3.69964 12.103
          }
        }
      }
    }
  }
  JOINT lButtock
  {
    OFFSET 8.77824 4.35084 1.2192
    CHANNELS 3 Zrotation Xrotation Yrotation
    JOINT lThigh
    {
      OFFSET 0 -1.70687 -2.19456
      CHANNELS 3 Zrotation Xrotation Yrotation
      JOINT lShin
      {
        OFFSET 0 -36.8199 0.73152
        CHANNELS 3 Zrotation Xrotation Yrotation
        JOINT lFoot
        {
          OFFSET -0.73152 -45.1104 -5.12064
          CHANNELS 3 Zrotation Xrotation Yrotation
          End Site
          {
            OFFSET 1.1221 -3.69964 12.103
          }
        }
      }
    }
  }
}
MOTION
Frames:	7
Frame Time:	0.00833333
-9.91565 70.3139 21.5255 -0.0 -0.0 -0.0 -0.0 -0.0 -0.0 0.0 0.0 -0.0 -7.839959 7.474454 -64.637578 10.095103 3.902534 64.805654 0.0 -0.0 -0.0 0.0 -0.0 -0.0 -143.620413 38.233348 148.080496 -155.393326 -26.092474 171.292274 179.185946 -10.451545 143.739813 173.263419 -8.836379 144.712435 -5.433768 5.264911 1.077842 12.580154 -15.277622 -5.620049 -4.706866 7.223928 2.854949 -71.95306 48.944319 45.547863 -160.573436 -6.359341 143.198121 -160.245029 -5.371737 143.117239 -0.000142 -0.018512 -0.005816 -3.391572 29.344359 4.679812 -1.203484 -3.047547 -1.116064 0.48031 1.135251 0.488713 80.1661 68.371792 -83.260848 -16.926784 14.142456 0.162407 -166.554307 -0.408168 -170.013927 55.288546 70.967254 -37.846319 -3.050796 -3.032564 0.389644 72.770481 28.468216 -65.555282 138.763944 4.487785 -115.031946 48.834932 61.15349 -39.437975 36.036059 51.723116 -29.832321 164.586543 -4.869259 -145.948015 0.00872 -0.872093 0.274064 7.053979 44.322712 -8.991518 104.234857 -44.888946 102.393662 11.667441 -31.810659 13.969913 -180.0 75.749642 -0.0 -180.0 75.749642 -0.0 3.093813 0.300867 27.366401 -102.196121 11.479583 29.144837 -180.0 75.749642 -0.0 -180.0 75.749642 -0.0 2.74577 11.919568 137.880989 -74.342804 -29.291566 -178.933069
-9.93594 70.5056 21.8776 -0.0 0.0 0.0 -0.0 -4.771896 -180.0 -0.0 -4.771896 180.0 1.115182 19.714459 -163.791626 6.835951 18.56806 162.479082 0.0 -0.0 -0.0 0.0 -0.0 -0.0 -80.1661 68.371792 83.260848 6.284056 -75.51946 -14.784394 -6.9713 12.976819 -1.438804 8.285038 -24.163249 2.622136 1.590029 -1.575931 -0.222909 -146.094869 -55.680255 121.786157 37.215945 -57.917763 -0.643014 -161.610189 -14.111221 104.155275 0.047552 -0.138632 -0.026316 -0.391253 1.152888 0.164603 -145.119721 0.310087 -179.225753 -143.879394 -12.050375 -177.509921 -149.198149 25.859061 -145.26249 -83.494616 -51.356746 -84.98533 159.220516 -48.028485 -170.415257 -55.636187 -64.60497 -45.564702 -90.305339 72.126071 107.135341 155.047045 58.911618 -130.988021 7.351256 7.062242 -1.570266 -26.289689 -35.294154 11.158103 129.577218 16.761325 -108.78574 11.837132 46.357705 -2.905428 160.992874 -7.659212 -143.392556 171.755483 -38.150964 -143.034751 74.840941 72.961123 -92.827929 32.026396 -65.058494 49.7185 120.230082 -33.970079 118.11383 20.475821 -40.700131 23.28121 -180.0 75.749642 -0.0 -180.0 75.749642 -0.0 -4.450848 2.727963 -46.732744 80.208555 27.169659 -2.868305 -180.0 75.749642 -0.0 -180.0 75.749642 -0.0 -7.020854 4.02674 -75.890629 4.887626 -44.215418 91.92396
-9.94684 70.6638 22.1907 -0.0 0.0 0.0 -0.0 -4.771896 -180.0 -0.0 -4.771896 180.0 1.115182 19.714459 -163.791626 6.835951 18.56806 162.479082 0.0 -0.0 -0.0 0.0 -0.0 -0.0 -80.1661 68.371792 83.260848 6.284056 -75.51946 -14.784394 -30.094758 59.650336 11.859699 50.633916 -66.205251 37.162803 -172.745809 -10.423727 89.92934 -77.855667 6.239922 25.600356 -46.208543 39.652969 36.318179 2.060675 -1.021208 -10.804734 -36.036059 51.723116 29.832321 1.224207 2.394746 -2.284381 0.000171 0.022644 0.007114 -0.064699 0.86421 0.104889 -161.704759 70.564335 -151.025746 -125.803548 -28.548187 -122.806115 159.220516 -48.028485 -170.415257 -55.636187 -64.60497 -45.564702 -75.916506 71.559717 93.308507 159.177361 55.003719 -134.305435 -3.523287 -3.50505 0.435699 3.071936 2.878107 -0.228574 149.660507 -14.029052 -120.542504 162.940056 -39.700761 -118.880974 153.32078 13.628946 -138.862343 165.63034 -22.53449 -145.242457 145.119721 0.310087 179.225753 144.617988 -5.23188 178.482215 133.876602 -15.638763 131.333304 151.831507 36.410447 147.720758 -180.0 75.749642 -0.0 -180.0 75.749642 -0.0 -4.450848 2.727963 -46.732744 80.208555 27.169659 -2.868305 -180.0 75.749642 -0.0 -180.0 75.749642 -0.0 -7.020854 4.02674 -75.890629 4.887626 -44.215418 91.92396
-9.95648 70.7956 22.4674 0.0 -0.0 0.0 -0.0 -0.0 -0.0 -0.0 0.0 0.0 12.005674 11.259609 108.921114 -6.73077 14.992858 -109.222195 -0.0 -0.0 0.0 -0.0 -0.0 0.0 -159.220516 -48.028485 170.415257 41.577607 -56.536438 33.919254 7.337985 5.34689 -33.889022 173.155931 -9.164711 144.684346 76.384988 -49.199857 28.871344 -109.634515 35.312529 74.899919 159.641557 -69.973343 102.396332 7.156637 18.710167 5.247313 75.226688 -80.695185 46.523565 -163.810772 -5.302587 140.119075 0.00503 1.687535 0.530127 -0.128248 -0.017346 -0.322189 -124.851156 -29.038378 -122.621388 17.264312 43.635513 8.978648 -2.185877 -15.733598 3.202037 169.859322 44.359988 -170.244885 -176.416232 -31.144687 -174.983665 9.789825 29.281427 -1.534401 169.994474 -7.677138 -89.939799 -178.493261 -17.677955 -93.833 100.051655 38.037358 -84.4861 -174.922286 -58.112392 -116.507515 -6.533059 -20.414937 2.717988 165.938154 -3.438061 -142.022813 0.006699 3.47564 -1.092469 -0.619988 -26.56277 3.851422 43.363118 -47.546704 42.161842 -43.174251 86.876212 4.987705 -180.0 75.749642 -0.0 -180.0 75.749642 -0.0 7.497265 6.071566 94.236337 -8.903189 71.062192 -70.139173 -180.0 75.749642 -0.0 -180.0 75.749642 -0.0 5.240399 4.225182 61.482581 -137.041837 10.860678 47.137146
-9.9775 70.9603 22.8973 -0.0 -0.0 -0.0 -0.0 -0.0 -0.0 0.0 0.0 -0.0 -7.839959 7.474454 -64.637578 10.095103 3.902534 64.805654 0.0 -0.0 -0.0 0.0 -0.0 -0.0 -143.620413 38.233348 148.080496 93.700912 -84.665221 68.042651 -89.384552 82.81195 60.237041 158.851184 -42.086841 137.01732 83.25393 -50.258079 33.616048 -137.943483 16.221988 102.605986 -140.164771 2.326489 115.87806 17.655788 2.120945 -13.790356 -152.826618 14.79318 138.51447 5.602126 2.140832 -0.644667 -145.108492 3.677793 179.715527 -51.092478 88.349252 74.373447 -111.059157 -41.159436 -109.11664 -156.012426 54.143499 -151.444486 80.1661 68.371792 -83.260848 -16.926784 14.142456 0.162407 -166.554307 -0.408168 -170.013927 55.288546 70.967254 -37.846319 -3.050796 -3.032564 0.389644 72.770481 28.468216 -65.555282 -10.746993 -19.048016 4.725035 166.755233 -8.492992 -106.222088 36.036059 51.723116 -29.832321 171.458871 -29.858212 -147.139092 0.00872 -0.872093 0.274064 16.544222 61.858485 -19.002768 104.234857 -44.888946 102.393662 145.855816 12.917846 145.06823 -180.0 75.749642 -0.0 -180.0 75.749642 -0.0 3.093813 0.300867 27.366401 -102.196121 11.479583 29.144837 -180.0 75.749642 -0.0 -180.0 75.749642 -0.0 2.74577 11.919568 137.880989 -74.342804 -29.291566 -178.933069
-9.97936 71.0688 23.2101 -0.0 -0.0 -0.0 -0.0 -0.0 -0.0 0.0 0.0 -0.0 -7.839959 7.474454 -64.637578 10.095103 3.902534 64.805654 0.0 -0.0 -0.0 0.0 -0.0 -0.0 -143.620413 38.233348 148.080496 -155.393326 -26.092474 171.292274 4.342538 6.996228 0.710734 -4.616223 14.633219 0.089258 5.435778 -5.421513 -0.582451 -68.041655 30.433382 60.205707 73.41997 -73.571281 26.563334 -177.054382 -35.788019 100.294754 -160.673322 -6.667841 143.245105 -1.828693 21.23857 4.732194 -0.022699 -1.806537 -0.567997 -166.261451 -11.35882 172.795075 1.134951 3.04054 1.043633 -150.307065 13.019817 -143.850089 80.1661 68.371792 -83.260848 -16.926784 14.142456 0.162407 50.917469 -81.321827 57.232539 -5.360554 -16.348176 -1.33608 2.708809 2.652196 -0.477276 -41.628052 -62.188918 15.112094 77.667448 43.02965 -64.538509 -53.169291 -68.258634 -9.194765 0.057679 0.167876 -0.032027 174.138937 -28.057222 -144.235048 145.119721 0.310087 179.225753 64.793236 -77.92947 96.637915 156.381711 53.734251 150.117957 -19.164882 43.411559 -4.146402 -180.0 75.749642 -0.0 -180.0 75.749642 -0.0 2.512346 0.127625 22.075435 -88.957163 10.753708 22.105233 -180.0 75.749642 -0.0 -180.0 75.749642 -0.0 5.634217 7.031168 86.353135 -5.051219 -27.111604 -96.041055
-9.97064 71.1707 23.4498 -0.0 -0.0 -0.0 -0.0 -0.0 -0.0 0.0 0.0 -0.0 -7.839959 7.474454 -64.637578 10.095103 3.902534 64.805654 0.0 -0.0 -0.0 0.0 -0.0 -0.0 -143.620413 38.233348 148.080496 -153.748773 -14.787283 171.174154 96.127233 -70.521731 70.671041 -159.88736 54.231695 134.855743 3.050796 -3.032564 -0.389644 -15.571211 15.467652 11.71536 -8.361002 12.235891 5.303597 -172.784572 -12.378898 112.304086 78.537123 -80.919176 49.688177 88.108894 -75.118286 59.672432 0.000171 0.022601 0.007101 0.892238 -16.130093 -1.91734 -124.851156 -29.038378 -122.621388 17.264312 43.635513 8.978648 80.1661 68.371792 -83.260848 -16.926784 14.142456 0.162407 -178.97199 -63.125705 -175.376309 4.795422 15.182902 -0.116533 -12.713539 -12.673951 0.55308 143.245566 -50.614984 -127.930221 50.386399 40.826202 -40.02487 84.518648 58.997007 -57.938211 160.673322 -6.667841 -143.245105 170.535435 -35.280472 -143.428644 -0.000474 0.063775 -0.020036 165.801535 -1.876663 -172.021085 137.123806 -9.170558 134.418024 -5.779694 1.820021 0.284731 -180.0 75.749642 -0.0 -180.0 75.749642 -0.0 2.512346 0.127625 22.075435 -88.957163 10.753708 22.105233 -180.0 75.749642 -0.0 -180.0 75.749642 -0.0 5.634217 7.031168 86.353135 -5.051219 -27.111604 -96.041055
